<?xml version="1.0" encoding="UTF-8" standalone="no"?>
<!DOCTYPE svg PUBLIC "-//W3C//DTD SVG 1.1//EN"
 "http://www.w3.org/Graphics/SVG/1.1/DTD/svg11.dtd">
<!-- Generated by graphviz version 2.40.1 (20161225.0304)
 -->
<!-- Title: dependencies Pages: 1 -->
<svg width="1104pt" height="211pt"
 viewBox="0.00 0.00 1104.00 211.00" xmlns="http://www.w3.org/2000/svg" xmlns:xlink="http://www.w3.org/1999/xlink">
<g id="graph0" class="graph" transform="scale(1 1) rotate(0) translate(4 207)">
<title>dependencies</title>
<polygon fill="#ffffff" stroke="transparent" points="-4,4 -4,-207 1100,-207 1100,4 -4,4"/>
<text text-anchor="start" x="527.0091" y="-42.4" font-family="sans-serif" font-weight="bold" font-size="14.00" fill="#000000">Legend</text>
<polygon fill="#ffffb3" stroke="transparent" points="314,-10 314,-30 334,-30 334,-10 314,-10"/>
<text text-anchor="start" x="337.629" y="-15.4" font-family="sans-serif" font-size="14.00" fill="#000000"> &#160;Declarations</text>
<polygon fill="#8dd3c7" stroke="transparent" points="427,-10 427,-30 447,-30 447,-10 427,-10"/>
<text text-anchor="start" x="450.7251" y="-15.4" font-family="sans-serif" font-size="14.00" fill="#000000"> &#160;Module</text>
<polygon fill="#80b1d3" stroke="transparent" points="513,-10 513,-30 533,-30 533,-10 513,-10"/>
<text text-anchor="start" x="536.7812" y="-15.4" font-family="sans-serif" font-size="14.00" fill="#000000"> &#160;Bootstrap</text>
<polygon fill="#fdb462" stroke="transparent" points="610,-10 610,-30 630,-30 630,-10 610,-10"/>
<text text-anchor="start" x="633.6732" y="-15.4" font-family="sans-serif" font-size="14.00" fill="#000000"> &#160;Providers</text>
<polygon fill="#fb8072" stroke="transparent" points="706,-10 706,-30 726,-30 726,-10 706,-10"/>
<text text-anchor="start" x="729.7258" y="-15.4" font-family="sans-serif" font-size="14.00" fill="#000000"> &#160;Exports</text>
<g id="clust1" class="cluster">
<title>cluster_ClientsModule</title>
<polygon fill="none" stroke="#000000" stroke-dasharray="1,5" points="8,-70 8,-195 1088,-195 1088,-70 8,-70"/>
</g>
<g id="clust2" class="cluster">
<title>cluster_ClientsModule_declarations</title>
<polygon fill="none" stroke="#000000" points="436,-78 436,-130 1080,-130 1080,-78 436,-78"/>
</g>
<g id="clust7" class="cluster">
<title>cluster_ClientsModule_imports</title>
<polygon fill="none" stroke="#000000" points="16,-78 16,-130 428,-130 428,-78 16,-78"/>
</g>
<!-- ClientComponent -->
<g id="node1" class="node">
<title>ClientComponent</title>
<polygon fill="#ffffb3" stroke="#000000" points="1071.5563,-122 956.4437,-122 956.4437,-86 1071.5563,-86 1071.5563,-122"/>
<text text-anchor="middle" x="1014" y="-99.8" font-family="Times,serif" font-size="14.00" fill="#000000">ClientComponent</text>
</g>
<!-- ClientsModule -->
<g id="node5" class="node">
<title>ClientsModule</title>
<polygon fill="#8dd3c7" stroke="#000000" points="567.7176,-187 564.7176,-191 543.7176,-191 540.7176,-187 468.2824,-187 468.2824,-151 567.7176,-151 567.7176,-187"/>
<text text-anchor="middle" x="518" y="-164.8" font-family="Times,serif" font-size="14.00" fill="#000000">ClientsModule</text>
</g>
<!-- ClientComponent&#45;&gt;ClientsModule -->
<g id="edge1" class="edge">
<title>ClientComponent&#45;&gt;ClientsModule</title>
<path fill="none" stroke="#000000" d="M1014,-122.2921C1014,-144.2057 1014,-178 1014,-178 1014,-178 577.8293,-178 577.8293,-178"/>
<polygon fill="#000000" stroke="#000000" points="577.8294,-174.5001 567.8293,-178 577.8293,-181.5001 577.8294,-174.5001"/>
</g>
<!-- ListClientsComponent -->
<g id="node2" class="node">
<title>ListClientsComponent</title>
<polygon fill="#ffffb3" stroke="#000000" points="938.2786,-122 795.7214,-122 795.7214,-86 938.2786,-86 938.2786,-122"/>
<text text-anchor="middle" x="867" y="-99.8" font-family="Times,serif" font-size="14.00" fill="#000000">ListClientsComponent</text>
</g>
<!-- ListClientsComponent&#45;&gt;ClientsModule -->
<g id="edge2" class="edge">
<title>ListClientsComponent&#45;&gt;ClientsModule</title>
<path fill="none" stroke="#000000" d="M867,-122.1061C867,-141.3391 867,-169 867,-169 867,-169 577.6326,-169 577.6326,-169"/>
<polygon fill="#000000" stroke="#000000" points="577.6326,-165.5001 567.6326,-169 577.6325,-172.5001 577.6326,-165.5001"/>
</g>
<!-- PageAddClientComponent -->
<g id="node3" class="node">
<title>PageAddClientComponent</title>
<polygon fill="#ffffb3" stroke="#000000" points="777.3738,-122 610.6262,-122 610.6262,-86 777.3738,-86 777.3738,-122"/>
<text text-anchor="middle" x="694" y="-99.8" font-family="Times,serif" font-size="14.00" fill="#000000">PageAddClientComponent</text>
</g>
<!-- PageAddClientComponent&#45;&gt;ClientsModule -->
<g id="edge3" class="edge">
<title>PageAddClientComponent&#45;&gt;ClientsModule</title>
<path fill="none" stroke="#000000" d="M694,-122.027C694,-138.3976 694,-160 694,-160 694,-160 577.9638,-160 577.9638,-160"/>
<polygon fill="#000000" stroke="#000000" points="577.9638,-156.5001 567.9638,-160 577.9637,-163.5001 577.9638,-156.5001"/>
</g>
<!-- PageClientsComponent -->
<g id="node4" class="node">
<title>PageClientsComponent</title>
<polygon fill="#ffffb3" stroke="#000000" points="592.212,-122 443.788,-122 443.788,-86 592.212,-86 592.212,-122"/>
<text text-anchor="middle" x="518" y="-99.8" font-family="Times,serif" font-size="14.00" fill="#000000">PageClientsComponent</text>
</g>
<!-- PageClientsComponent&#45;&gt;ClientsModule -->
<g id="edge4" class="edge">
<title>PageClientsComponent&#45;&gt;ClientsModule</title>
<path fill="none" stroke="#000000" d="M518,-122.1061C518,-122.1061 518,-140.991 518,-140.991"/>
<polygon fill="#000000" stroke="#000000" points="514.5001,-140.9909 518,-150.991 521.5001,-140.991 514.5001,-140.9909"/>
</g>
<!-- ClientsRoutingModule -->
<g id="node6" class="node">
<title>ClientsRoutingModule</title>
<polygon fill="#8dd3c7" stroke="#000000" points="420.3356,-122 417.3356,-126 396.3356,-126 393.3356,-122 275.6644,-122 275.6644,-86 420.3356,-86 420.3356,-122"/>
<text text-anchor="middle" x="348" y="-99.8" font-family="Times,serif" font-size="14.00" fill="#000000">ClientsRoutingModule</text>
</g>
<!-- ClientsRoutingModule&#45;&gt;ClientsModule -->
<g id="edge5" class="edge">
<title>ClientsRoutingModule&#45;&gt;ClientsModule</title>
<path fill="none" stroke="#000000" d="M348,-122.027C348,-138.3976 348,-160 348,-160 348,-160 458.372,-160 458.372,-160"/>
<polygon fill="#000000" stroke="#000000" points="458.372,-163.5001 468.372,-160 458.3719,-156.5001 458.372,-163.5001"/>
</g>
<!-- SharedModule -->
<g id="node7" class="node">
<title>SharedModule</title>
<polygon fill="#8dd3c7" stroke="#000000" points="258.4231,-122 255.4231,-126 234.4231,-126 231.4231,-122 159.5769,-122 159.5769,-86 258.4231,-86 258.4231,-122"/>
<text text-anchor="middle" x="209" y="-99.8" font-family="Times,serif" font-size="14.00" fill="#000000">SharedModule</text>
</g>
<!-- SharedModule&#45;&gt;ClientsModule -->
<g id="edge6" class="edge">
<title>SharedModule&#45;&gt;ClientsModule</title>
<path fill="none" stroke="#000000" d="M209,-122.1061C209,-141.3391 209,-169 209,-169 209,-169 458.3538,-169 458.3538,-169"/>
<polygon fill="#000000" stroke="#000000" points="458.3538,-172.5001 468.3538,-169 458.3538,-165.5001 458.3538,-172.5001"/>
</g>
<!-- TemplatesModule -->
<g id="node8" class="node">
<title>TemplatesModule</title>
<polygon fill="#8dd3c7" stroke="#000000" points="141.8627,-122 138.8627,-126 117.8627,-126 114.8627,-122 24.1373,-122 24.1373,-86 141.8627,-86 141.8627,-122"/>
<text text-anchor="middle" x="83" y="-99.8" font-family="Times,serif" font-size="14.00" fill="#000000">TemplatesModule</text>
</g>
<!-- TemplatesModule&#45;&gt;ClientsModule -->
<g id="edge7" class="edge">
<title>TemplatesModule&#45;&gt;ClientsModule</title>
<path fill="none" stroke="#000000" d="M83,-122.2921C83,-144.2057 83,-178 83,-178 83,-178 458.1,-178 458.1,-178"/>
<polygon fill="#000000" stroke="#000000" points="458.1,-181.5001 468.1,-178 458.0999,-174.5001 458.1,-181.5001"/>
</g>
</g>
</svg>
