<?xml version="1.0" encoding="UTF-8" standalone="no"?>
<!DOCTYPE svg PUBLIC "-//W3C//DTD SVG 1.1//EN"
 "http://www.w3.org/Graphics/SVG/1.1/DTD/svg11.dtd">
<!-- Generated by graphviz version 2.40.1 (20161225.0304)
 -->
<!-- Title: dependencies Pages: 1 -->
<svg width="5023pt" height="360pt"
 viewBox="0.00 0.00 5023.00 360.00" xmlns="http://www.w3.org/2000/svg" xmlns:xlink="http://www.w3.org/1999/xlink">
<g id="graph0" class="graph" transform="scale(1 1) rotate(0) translate(4 356)">
<title>dependencies</title>
<polygon fill="#ffffff" stroke="transparent" points="-4,4 -4,-356 5019,-356 5019,4 -4,4"/>
<text text-anchor="start" x="2486.5091" y="-42.4" font-family="sans-serif" font-weight="bold" font-size="14.00" fill="#000000">Legend</text>
<polygon fill="#ffffb3" stroke="transparent" points="2273.5,-10 2273.5,-30 2293.5,-30 2293.5,-10 2273.5,-10"/>
<text text-anchor="start" x="2297.129" y="-15.4" font-family="sans-serif" font-size="14.00" fill="#000000"> &#160;Declarations</text>
<polygon fill="#8dd3c7" stroke="transparent" points="2386.5,-10 2386.5,-30 2406.5,-30 2406.5,-10 2386.5,-10"/>
<text text-anchor="start" x="2410.2251" y="-15.4" font-family="sans-serif" font-size="14.00" fill="#000000"> &#160;Module</text>
<polygon fill="#80b1d3" stroke="transparent" points="2472.5,-10 2472.5,-30 2492.5,-30 2492.5,-10 2472.5,-10"/>
<text text-anchor="start" x="2496.2812" y="-15.4" font-family="sans-serif" font-size="14.00" fill="#000000"> &#160;Bootstrap</text>
<polygon fill="#fdb462" stroke="transparent" points="2569.5,-10 2569.5,-30 2589.5,-30 2589.5,-10 2569.5,-10"/>
<text text-anchor="start" x="2593.1732" y="-15.4" font-family="sans-serif" font-size="14.00" fill="#000000"> &#160;Providers</text>
<polygon fill="#fb8072" stroke="transparent" points="2665.5,-10 2665.5,-30 2685.5,-30 2685.5,-10 2665.5,-10"/>
<text text-anchor="start" x="2689.2258" y="-15.4" font-family="sans-serif" font-size="14.00" fill="#000000"> &#160;Exports</text>
<g id="clust1" class="cluster">
<title>cluster_AppModule</title>
<polygon fill="none" stroke="#000000" stroke-dasharray="1,5" points="178,-146 178,-344 670,-344 670,-146 178,-146"/>
</g>
<g id="clust2" class="cluster">
<title>cluster_AppModule_declarations</title>
<polygon fill="none" stroke="#000000" points="540,-154 540,-206 662,-206 662,-154 540,-154"/>
</g>
<g id="clust4" class="cluster">
<title>cluster_AppModule_imports</title>
<polygon fill="none" stroke="#000000" points="186,-154 186,-206 532,-206 532,-154 186,-154"/>
</g>
<g id="clust6" class="cluster">
<title>cluster_AppModule_bootstrap</title>
<polygon fill="none" stroke="#000000" points="365,-284 365,-336 489,-336 489,-284 365,-284"/>
</g>
<g id="clust14" class="cluster">
<title>cluster_ClientsModule</title>
<polygon fill="none" stroke="#000000" stroke-dasharray="1,5" points="846,-70 846,-206 1926,-206 1926,-70 846,-70"/>
</g>
<g id="clust15" class="cluster">
<title>cluster_ClientsModule_declarations</title>
<polygon fill="none" stroke="#000000" points="854,-78 854,-130 1498,-130 1498,-78 854,-78"/>
</g>
<g id="clust20" class="cluster">
<title>cluster_ClientsModule_imports</title>
<polygon fill="none" stroke="#000000" points="1506,-78 1506,-130 1918,-130 1918,-78 1506,-78"/>
</g>
<g id="clust30" class="cluster">
<title>cluster_LoginModule</title>
<polygon fill="none" stroke="#000000" stroke-dasharray="1,5" points="664,-70 664,-138 838,-138 838,-70 664,-70"/>
</g>
<g id="clust31" class="cluster">
<title>cluster_LoginModule_declarations</title>
<polygon fill="none" stroke="#000000" points="672,-78 672,-130 830,-130 830,-78 672,-78"/>
</g>
<g id="clust37" class="cluster">
<title>cluster_PageNotFoundModule</title>
<polygon fill="none" stroke="#000000" stroke-dasharray="1,5" points="4597,-70 4597,-206 5007,-206 5007,-70 4597,-70"/>
</g>
<g id="clust38" class="cluster">
<title>cluster_PageNotFoundModule_declarations</title>
<polygon fill="none" stroke="#000000" points="4817,-78 4817,-130 4999,-130 4999,-78 4817,-78"/>
</g>
<g id="clust40" class="cluster">
<title>cluster_PageNotFoundModule_imports</title>
<polygon fill="none" stroke="#000000" points="4605,-78 4605,-130 4809,-130 4809,-78 4605,-78"/>
</g>
<g id="clust50" class="cluster">
<title>cluster_PrestationsModule</title>
<polygon fill="none" stroke="#000000" stroke-dasharray="1,5" points="3652,-70 3652,-206 4589,-206 4589,-70 3652,-70"/>
</g>
<g id="clust51" class="cluster">
<title>cluster_PrestationsModule_declarations</title>
<polygon fill="none" stroke="#000000" points="3850,-78 3850,-130 4581,-130 4581,-78 3850,-78"/>
</g>
<g id="clust56" class="cluster">
<title>cluster_PrestationsModule_imports</title>
<polygon fill="none" stroke="#000000" points="3660,-78 3660,-130 3842,-130 3842,-78 3660,-78"/>
</g>
<g id="clust66" class="cluster">
<title>cluster_SharedModule</title>
<polygon fill="none" stroke="#000000" stroke-dasharray="1,5" points="1934,-146 1934,-214 2961,-214 2961,-146 1934,-146"/>
</g>
<g id="clust67" class="cluster">
<title>cluster_SharedModule_declarations</title>
<polygon fill="none" stroke="#000000" points="2459,-154 2459,-206 2953,-206 2953,-154 2459,-154"/>
</g>
<g id="clust73" class="cluster">
<title>cluster_SharedModule_exports</title>
<polygon fill="none" stroke="#000000" points="1942,-154 1942,-206 2451,-206 2451,-154 1942,-154"/>
</g>
<g id="clust76" class="cluster">
<title>cluster_TemplatesModule</title>
<polygon fill="none" stroke="#000000" stroke-dasharray="1,5" points="2969,-146 2969,-214 3644,-214 3644,-146 2969,-146"/>
</g>
<g id="clust77" class="cluster">
<title>cluster_TemplatesModule_declarations</title>
<polygon fill="none" stroke="#000000" points="3314,-154 3314,-206 3636,-206 3636,-154 3314,-154"/>
</g>
<g id="clust81" class="cluster">
<title>cluster_TemplatesModule_exports</title>
<polygon fill="none" stroke="#000000" points="2977,-154 2977,-206 3306,-206 3306,-154 2977,-154"/>
</g>
<g id="clust84" class="cluster">
<title>cluster_UiModule</title>
<polygon fill="none" stroke="#000000" stroke-dasharray="1,5" points="8,-70 8,-138 656,-138 656,-70 8,-70"/>
</g>
<g id="clust85" class="cluster">
<title>cluster_UiModule_declarations</title>
<polygon fill="none" stroke="#000000" points="138,-78 138,-130 648,-130 648,-78 138,-78"/>
</g>
<g id="clust91" class="cluster">
<title>cluster_UiModule_exports</title>
<polygon fill="none" stroke="#000000" points="16,-78 16,-130 130,-130 130,-78 16,-78"/>
</g>
<!-- AppComponent -->
<g id="node1" class="node">
<title>AppComponent</title>
<polygon fill="#ffffb3" stroke="#000000" points="653.9399,-198 548.0601,-198 548.0601,-162 653.9399,-162 653.9399,-198"/>
<text text-anchor="middle" x="601" y="-175.8" font-family="Times,serif" font-size="14.00" fill="#000000">AppComponent</text>
</g>
<!-- AppModule -->
<g id="node2" class="node">
<title>AppModule</title>
<polygon fill="#8dd3c7" stroke="#000000" points="468.6571,-263 465.6571,-267 444.6571,-267 441.6571,-263 385.3429,-263 385.3429,-227 468.6571,-227 468.6571,-263"/>
<text text-anchor="middle" x="427" y="-240.8" font-family="Times,serif" font-size="14.00" fill="#000000">AppModule</text>
</g>
<!-- AppComponent&#45;&gt;AppModule -->
<g id="edge1" class="edge">
<title>AppComponent&#45;&gt;AppModule</title>
<path fill="none" stroke="#000000" d="M601,-198.1061C601,-217.3391 601,-245 601,-245 601,-245 478.6773,-245 478.6773,-245"/>
<polygon fill="#000000" stroke="#000000" points="478.6774,-241.5001 468.6773,-245 478.6773,-248.5001 478.6774,-241.5001"/>
</g>
<!-- AppComponent  -->
<g id="node6" class="node">
<title>AppComponent </title>
<polygon fill="#80b1d3" stroke="#000000" points="481.439,-328 372.561,-328 372.561,-292 481.439,-292 481.439,-328"/>
<text text-anchor="middle" x="427" y="-305.8" font-family="Times,serif" font-size="14.00" fill="#000000">AppComponent </text>
</g>
<!-- AppModule&#45;&gt;AppComponent  -->
<g id="edge5" class="edge">
<title>AppModule&#45;&gt;AppComponent </title>
<path fill="none" stroke="#000000" stroke-dasharray="1,5" d="M427,-263.1061C427,-263.1061 427,-281.991 427,-281.991"/>
<polygon fill="#000000" stroke="#000000" points="423.5001,-281.9909 427,-291.991 430.5001,-281.991 423.5001,-281.9909"/>
</g>
<!-- AppRoutingModule -->
<g id="node3" class="node">
<title>AppRoutingModule</title>
<polygon fill="#8dd3c7" stroke="#000000" points="322.2744,-198 319.2744,-202 298.2744,-202 295.2744,-198 193.7256,-198 193.7256,-162 322.2744,-162 322.2744,-198"/>
<text text-anchor="middle" x="258" y="-175.8" font-family="Times,serif" font-size="14.00" fill="#000000">AppRoutingModule</text>
</g>
<!-- AppRoutingModule&#45;&gt;AppModule -->
<g id="edge2" class="edge">
<title>AppRoutingModule&#45;&gt;AppModule</title>
<path fill="none" stroke="#000000" d="M258,-198.1061C258,-217.3391 258,-245 258,-245 258,-245 375.2247,-245 375.2247,-245"/>
<polygon fill="#000000" stroke="#000000" points="375.2247,-248.5001 385.2247,-245 375.2247,-241.5001 375.2247,-248.5001"/>
</g>
<!-- LoginModule -->
<g id="node4" class="node">
<title>LoginModule</title>
<polygon fill="#8dd3c7" stroke="#000000" points="524.493,-198 521.493,-202 500.493,-202 497.493,-198 431.507,-198 431.507,-162 524.493,-162 524.493,-198"/>
<text text-anchor="middle" x="478" y="-175.8" font-family="Times,serif" font-size="14.00" fill="#000000">LoginModule</text>
</g>
<!-- LoginModule&#45;&gt;AppModule -->
<g id="edge3" class="edge">
<title>LoginModule&#45;&gt;AppModule</title>
<path fill="none" stroke="#000000" d="M450.1659,-198.1061C450.1659,-198.1061 450.1659,-216.991 450.1659,-216.991"/>
<polygon fill="#000000" stroke="#000000" points="446.6659,-216.9909 450.1659,-226.991 453.6659,-216.991 446.6659,-216.9909"/>
</g>
<!-- UiModule -->
<g id="node5" class="node">
<title>UiModule</title>
<polygon fill="#8dd3c7" stroke="#000000" points="413.5484,-198 410.5484,-202 389.5484,-202 386.5484,-198 340.4516,-198 340.4516,-162 413.5484,-162 413.5484,-198"/>
<text text-anchor="middle" x="377" y="-175.8" font-family="Times,serif" font-size="14.00" fill="#000000">UiModule</text>
</g>
<!-- UiModule&#45;&gt;AppModule -->
<g id="edge4" class="edge">
<title>UiModule&#45;&gt;AppModule</title>
<path fill="none" stroke="#000000" d="M399.4727,-198.1061C399.4727,-198.1061 399.4727,-216.991 399.4727,-216.991"/>
<polygon fill="#000000" stroke="#000000" points="395.9727,-216.9909 399.4727,-226.991 402.9727,-216.991 395.9727,-216.9909"/>
</g>
<!-- UiComponent  -->
<g id="node41" class="node">
<title>UiComponent </title>
<polygon fill="#fb8072" stroke="#000000" points="122.3297,-122 23.6703,-122 23.6703,-86 122.3297,-86 122.3297,-122"/>
<text text-anchor="middle" x="73" y="-99.8" font-family="Times,serif" font-size="14.00" fill="#000000">UiComponent </text>
</g>
<!-- UiModule&#45;&gt;UiComponent  -->
<g id="edge39" class="edge">
<title>UiModule&#45;&gt;UiComponent </title>
<path fill="none" stroke="#000000" stroke-dasharray="5,2" d="M346.2516,-161.92C346.2516,-160.1536 346.2516,-159 346.2516,-159 346.2516,-159 73,-159 73,-159 73,-159 73,-132.0091 73,-132.0091"/>
<polygon fill="#000000" stroke="#000000" points="76.5001,-132.009 73,-122.0091 69.5001,-132.0091 76.5001,-132.009"/>
</g>
<!-- ClientComponent -->
<g id="node7" class="node">
<title>ClientComponent</title>
<polygon fill="#ffffb3" stroke="#000000" points="1489.5563,-122 1374.4437,-122 1374.4437,-86 1489.5563,-86 1489.5563,-122"/>
<text text-anchor="middle" x="1432" y="-99.8" font-family="Times,serif" font-size="14.00" fill="#000000">ClientComponent</text>
</g>
<!-- ClientsModule -->
<g id="node11" class="node">
<title>ClientsModule</title>
<polygon fill="#8dd3c7" stroke="#000000" points="1481.7176,-198 1478.7176,-202 1457.7176,-202 1454.7176,-198 1382.2824,-198 1382.2824,-162 1481.7176,-162 1481.7176,-198"/>
<text text-anchor="middle" x="1432" y="-175.8" font-family="Times,serif" font-size="14.00" fill="#000000">ClientsModule</text>
</g>
<!-- ClientComponent&#45;&gt;ClientsModule -->
<g id="edge6" class="edge">
<title>ClientComponent&#45;&gt;ClientsModule</title>
<path fill="none" stroke="#000000" d="M1432,-122.0109C1432,-122.0109 1432,-151.855 1432,-151.855"/>
<polygon fill="#000000" stroke="#000000" points="1428.5001,-151.8549 1432,-161.855 1435.5001,-151.855 1428.5001,-151.8549"/>
</g>
<!-- ListClientsComponent -->
<g id="node8" class="node">
<title>ListClientsComponent</title>
<polygon fill="#ffffb3" stroke="#000000" points="1356.2786,-122 1213.7214,-122 1213.7214,-86 1356.2786,-86 1356.2786,-122"/>
<text text-anchor="middle" x="1285" y="-99.8" font-family="Times,serif" font-size="14.00" fill="#000000">ListClientsComponent</text>
</g>
<!-- ListClientsComponent&#45;&gt;ClientsModule -->
<g id="edge7" class="edge">
<title>ListClientsComponent&#45;&gt;ClientsModule</title>
<path fill="none" stroke="#000000" d="M1285,-122.308C1285,-142.1455 1285,-171 1285,-171 1285,-171 1372.2325,-171 1372.2325,-171"/>
<polygon fill="#000000" stroke="#000000" points="1372.2325,-174.5001 1382.2325,-171 1372.2325,-167.5001 1372.2325,-174.5001"/>
</g>
<!-- PageAddClientComponent -->
<g id="node9" class="node">
<title>PageAddClientComponent</title>
<polygon fill="#ffffb3" stroke="#000000" points="1195.3738,-122 1028.6262,-122 1028.6262,-86 1195.3738,-86 1195.3738,-122"/>
<text text-anchor="middle" x="1112" y="-99.8" font-family="Times,serif" font-size="14.00" fill="#000000">PageAddClientComponent</text>
</g>
<!-- PageAddClientComponent&#45;&gt;ClientsModule -->
<g id="edge8" class="edge">
<title>PageAddClientComponent&#45;&gt;ClientsModule</title>
<path fill="none" stroke="#000000" d="M1112,-122.0109C1112,-144.4852 1112,-180 1112,-180 1112,-180 1372.3511,-180 1372.3511,-180"/>
<polygon fill="#000000" stroke="#000000" points="1372.3511,-183.5001 1382.3511,-180 1372.3511,-176.5001 1372.3511,-183.5001"/>
</g>
<!-- PageClientsComponent -->
<g id="node10" class="node">
<title>PageClientsComponent</title>
<polygon fill="#ffffb3" stroke="#000000" points="1010.212,-122 861.788,-122 861.788,-86 1010.212,-86 1010.212,-122"/>
<text text-anchor="middle" x="936" y="-99.8" font-family="Times,serif" font-size="14.00" fill="#000000">PageClientsComponent</text>
</g>
<!-- PageClientsComponent&#45;&gt;ClientsModule -->
<g id="edge9" class="edge">
<title>PageClientsComponent&#45;&gt;ClientsModule</title>
<path fill="none" stroke="#000000" d="M936,-122.0263C936,-146.9773 936,-189 936,-189 936,-189 1372.1707,-189 1372.1707,-189"/>
<polygon fill="#000000" stroke="#000000" points="1372.1707,-192.5001 1382.1707,-189 1372.1706,-185.5001 1372.1707,-192.5001"/>
</g>
<!-- ClientsRoutingModule -->
<g id="node12" class="node">
<title>ClientsRoutingModule</title>
<polygon fill="#8dd3c7" stroke="#000000" points="1658.3356,-122 1655.3356,-126 1634.3356,-126 1631.3356,-122 1513.6644,-122 1513.6644,-86 1658.3356,-86 1658.3356,-122"/>
<text text-anchor="middle" x="1586" y="-99.8" font-family="Times,serif" font-size="14.00" fill="#000000">ClientsRoutingModule</text>
</g>
<!-- ClientsRoutingModule&#45;&gt;ClientsModule -->
<g id="edge10" class="edge">
<title>ClientsRoutingModule&#45;&gt;ClientsModule</title>
<path fill="none" stroke="#000000" d="M1586,-122.0449C1586,-143.6623 1586,-177 1586,-177 1586,-177 1491.9994,-177 1491.9994,-177"/>
<polygon fill="#000000" stroke="#000000" points="1491.9994,-173.5001 1481.9994,-177 1491.9994,-180.5001 1491.9994,-173.5001"/>
</g>
<!-- SharedModule -->
<g id="node13" class="node">
<title>SharedModule</title>
<polygon fill="#8dd3c7" stroke="#000000" points="1774.4231,-122 1771.4231,-126 1750.4231,-126 1747.4231,-122 1675.5769,-122 1675.5769,-86 1774.4231,-86 1774.4231,-122"/>
<text text-anchor="middle" x="1725" y="-99.8" font-family="Times,serif" font-size="14.00" fill="#000000">SharedModule</text>
</g>
<!-- SharedModule&#45;&gt;ClientsModule -->
<g id="edge11" class="edge">
<title>SharedModule&#45;&gt;ClientsModule</title>
<path fill="none" stroke="#000000" d="M1756.3162,-122.1532C1756.3162,-145.7566 1756.3162,-184 1756.3162,-184 1756.3162,-184 1491.6097,-184 1491.6097,-184"/>
<polygon fill="#000000" stroke="#000000" points="1491.6097,-180.5001 1481.6097,-184 1491.6096,-187.5001 1491.6097,-180.5001"/>
</g>
<!-- PrestationsModule -->
<g id="node23" class="node">
<title>PrestationsModule</title>
<polygon fill="#8dd3c7" stroke="#000000" points="3987.4832,-198 3984.4832,-202 3963.4832,-202 3960.4832,-198 3866.5168,-198 3866.5168,-162 3987.4832,-162 3987.4832,-198"/>
<text text-anchor="middle" x="3927" y="-175.8" font-family="Times,serif" font-size="14.00" fill="#000000">PrestationsModule</text>
</g>
<!-- SharedModule&#45;&gt;PrestationsModule -->
<g id="edge21" class="edge">
<title>SharedModule&#45;&gt;PrestationsModule</title>
<path fill="none" stroke="#000000" d="M1747.3687,-122.1679C1747.3687,-124.4478 1747.3687,-126 1747.3687,-126 1747.3687,-126 3906.8361,-126 3906.8361,-126 3906.8361,-126 3906.8361,-151.7181 3906.8361,-151.7181"/>
<polygon fill="#000000" stroke="#000000" points="3903.3362,-151.718 3906.8361,-161.7181 3910.3362,-151.7181 3903.3362,-151.718"/>
</g>
<!-- AddRowComponent  -->
<g id="node29" class="node">
<title>AddRowComponent </title>
<polygon fill="#fb8072" stroke="#000000" points="2442.8827,-198 2307.1173,-198 2307.1173,-162 2442.8827,-162 2442.8827,-198"/>
<text text-anchor="middle" x="2375" y="-175.8" font-family="Times,serif" font-size="14.00" fill="#000000">AddRowComponent </text>
</g>
<!-- SharedModule&#45;&gt;AddRowComponent  -->
<g id="edge27" class="edge">
<title>SharedModule&#45;&gt;AddRowComponent </title>
<path fill="none" stroke="#000000" stroke-dasharray="5,2" d="M1738.4212,-122.0664C1738.4212,-131.4587 1738.4212,-141 1738.4212,-141 1738.4212,-141 2375,-141 2375,-141 2375,-141 2375,-151.8701 2375,-151.8701"/>
<polygon fill="#000000" stroke="#000000" points="2371.5001,-151.8701 2375,-161.8701 2378.5001,-151.8701 2371.5001,-151.8701"/>
</g>
<!-- StateDirective  -->
<g id="node30" class="node">
<title>StateDirective </title>
<polygon fill="#fb8072" stroke="#000000" points="2289.5767,-198 2190.4233,-198 2190.4233,-162 2289.5767,-162 2289.5767,-198"/>
<text text-anchor="middle" x="2240" y="-175.8" font-family="Times,serif" font-size="14.00" fill="#000000">StateDirective </text>
</g>
<!-- SharedModule&#45;&gt;StateDirective  -->
<g id="edge28" class="edge">
<title>SharedModule&#45;&gt;StateDirective </title>
<path fill="none" stroke="#000000" stroke-dasharray="5,2" d="M1729.4737,-122.1274C1729.4737,-132.7109 1729.4737,-144 1729.4737,-144 1729.4737,-144 2240,-144 2240,-144 2240,-144 2240,-151.5782 2240,-151.5782"/>
<polygon fill="#000000" stroke="#000000" points="2236.5001,-151.5781 2240,-161.5782 2243.5001,-151.5782 2236.5001,-151.5781"/>
</g>
<!-- TableauComponent  -->
<g id="node31" class="node">
<title>TableauComponent </title>
<polygon fill="#fb8072" stroke="#000000" points="2171.9194,-198 2042.0806,-198 2042.0806,-162 2171.9194,-162 2171.9194,-198"/>
<text text-anchor="middle" x="2107" y="-175.8" font-family="Times,serif" font-size="14.00" fill="#000000">TableauComponent </text>
</g>
<!-- SharedModule&#45;&gt;TableauComponent  -->
<g id="edge29" class="edge">
<title>SharedModule&#45;&gt;TableauComponent </title>
<path fill="none" stroke="#000000" stroke-dasharray="5,2" d="M1720.5263,-122.4854C1720.5263,-134.1399 1720.5263,-147 1720.5263,-147 1720.5263,-147 2107,-147 2107,-147 2107,-147 2107,-151.9551 2107,-151.9551"/>
<polygon fill="#000000" stroke="#000000" points="2103.5001,-151.9551 2107,-161.9551 2110.5001,-151.9552 2103.5001,-151.9551"/>
</g>
<!-- TotalPipe  -->
<g id="node32" class="node">
<title>TotalPipe </title>
<polygon fill="#fb8072" stroke="#000000" points="2023.9362,-198 1950.0638,-198 1950.0638,-162 2023.9362,-162 2023.9362,-198"/>
<text text-anchor="middle" x="1987" y="-175.8" font-family="Times,serif" font-size="14.00" fill="#000000">TotalPipe </text>
</g>
<!-- SharedModule&#45;&gt;TotalPipe  -->
<g id="edge30" class="edge">
<title>SharedModule&#45;&gt;TotalPipe </title>
<path fill="none" stroke="#000000" stroke-dasharray="5,2" d="M1765.2636,-122.0348C1765.2636,-141.5762 1765.2636,-170 1765.2636,-170 1765.2636,-170 1939.8863,-170 1939.8863,-170"/>
<polygon fill="#000000" stroke="#000000" points="1939.8864,-173.5001 1949.8863,-170 1939.8863,-166.5001 1939.8864,-173.5001"/>
</g>
<!-- TemplatesModule -->
<g id="node14" class="node">
<title>TemplatesModule</title>
<polygon fill="#8dd3c7" stroke="#000000" points="1909.8627,-122 1906.8627,-126 1885.8627,-126 1882.8627,-122 1792.1373,-122 1792.1373,-86 1909.8627,-86 1909.8627,-122"/>
<text text-anchor="middle" x="1851" y="-99.8" font-family="Times,serif" font-size="14.00" fill="#000000">TemplatesModule</text>
</g>
<!-- TemplatesModule&#45;&gt;ClientsModule -->
<g id="edge12" class="edge">
<title>TemplatesModule&#45;&gt;ClientsModule</title>
<path fill="none" stroke="#000000" d="M1851,-122.0265C1851,-147.5093 1851,-191 1851,-191 1851,-191 1491.7102,-191 1491.7102,-191"/>
<polygon fill="#000000" stroke="#000000" points="1491.7102,-187.5001 1481.7102,-191 1491.7102,-194.5001 1491.7102,-187.5001"/>
</g>
<!-- TemplatesModule&#45;&gt;PrestationsModule -->
<g id="edge22" class="edge">
<title>TemplatesModule&#45;&gt;PrestationsModule</title>
<path fill="none" stroke="#000000" d="M1910.0241,-92C2220.2617,-92 3648.0516,-92 3648.0516,-92 3648.0516,-92 3648.0516,-186 3648.0516,-186 3648.0516,-186 3856.4723,-186 3856.4723,-186"/>
<polygon fill="#000000" stroke="#000000" points="3856.4724,-189.5001 3866.4723,-186 3856.4723,-182.5001 3856.4724,-189.5001"/>
</g>
<!-- TemplateAComponent  -->
<g id="node35" class="node">
<title>TemplateAComponent </title>
<polygon fill="#fb8072" stroke="#000000" points="3297.8073,-198 3150.1927,-198 3150.1927,-162 3297.8073,-162 3297.8073,-198"/>
<text text-anchor="middle" x="3224" y="-175.8" font-family="Times,serif" font-size="14.00" fill="#000000">TemplateAComponent </text>
</g>
<!-- TemplatesModule&#45;&gt;TemplateAComponent  -->
<g id="edge33" class="edge">
<title>TemplatesModule&#45;&gt;TemplateAComponent </title>
<path fill="none" stroke="#000000" stroke-dasharray="5,2" d="M1909.9961,-110C2172.7969,-110 3224,-110 3224,-110 3224,-110 3224,-151.9733 3224,-151.9733"/>
<polygon fill="#000000" stroke="#000000" points="3220.5001,-151.9732 3224,-161.9733 3227.5001,-151.9733 3220.5001,-151.9732"/>
</g>
<!-- TemplateBComponent  -->
<g id="node36" class="node">
<title>TemplateBComponent </title>
<polygon fill="#fb8072" stroke="#000000" points="3132.5372,-198 2985.4628,-198 2985.4628,-162 3132.5372,-162 3132.5372,-198"/>
<text text-anchor="middle" x="3059" y="-175.8" font-family="Times,serif" font-size="14.00" fill="#000000">TemplateBComponent </text>
</g>
<!-- TemplatesModule&#45;&gt;TemplateBComponent  -->
<g id="edge34" class="edge">
<title>TemplatesModule&#45;&gt;TemplateBComponent </title>
<path fill="none" stroke="#000000" stroke-dasharray="5,2" d="M1910.0821,-116C2152.6118,-116 3059,-116 3059,-116 3059,-116 3059,-151.8314 3059,-151.8314"/>
<polygon fill="#000000" stroke="#000000" points="3055.5001,-151.8313 3059,-161.8314 3062.5001,-151.8314 3055.5001,-151.8313"/>
</g>
<!-- PageLoginComponent -->
<g id="node15" class="node">
<title>PageLoginComponent</title>
<polygon fill="#ffffb3" stroke="#000000" points="821.9874,-122 680.0126,-122 680.0126,-86 821.9874,-86 821.9874,-122"/>
<text text-anchor="middle" x="751" y="-99.8" font-family="Times,serif" font-size="14.00" fill="#000000">PageLoginComponent</text>
</g>
<!-- PageLoginComponent&#45;&gt;LoginModule -->
<g id="edge13" class="edge">
<title>PageLoginComponent&#45;&gt;LoginModule</title>
<path fill="none" stroke="#000000" d="M751,-122.2458C751,-136.1772 751,-153 751,-153 751,-153 512.9657,-153 512.9657,-153 512.9657,-153 512.9657,-153.8841 512.9657,-153.8841"/>
<polygon fill="#000000" stroke="#000000" points="509.4658,-151.8408 512.9657,-161.8408 516.4658,-151.8409 509.4658,-151.8408"/>
</g>
<!-- PageNotFoundComponent -->
<g id="node16" class="node">
<title>PageNotFoundComponent</title>
<polygon fill="#ffffb3" stroke="#000000" points="4990.8243,-122 4825.1757,-122 4825.1757,-86 4990.8243,-86 4990.8243,-122"/>
<text text-anchor="middle" x="4908" y="-99.8" font-family="Times,serif" font-size="14.00" fill="#000000">PageNotFoundComponent</text>
</g>
<!-- PageNotFoundModule -->
<g id="node17" class="node">
<title>PageNotFoundModule</title>
<polygon fill="#8dd3c7" stroke="#000000" points="4878.5421,-198 4875.5421,-202 4854.5421,-202 4851.5421,-198 4735.4579,-198 4735.4579,-162 4878.5421,-162 4878.5421,-198"/>
<text text-anchor="middle" x="4807" y="-175.8" font-family="Times,serif" font-size="14.00" fill="#000000">PageNotFoundModule</text>
</g>
<!-- PageNotFoundComponent&#45;&gt;PageNotFoundModule -->
<g id="edge14" class="edge">
<title>PageNotFoundComponent&#45;&gt;PageNotFoundModule</title>
<path fill="none" stroke="#000000" d="M4852.0544,-122.0109C4852.0544,-122.0109 4852.0544,-151.855 4852.0544,-151.855"/>
<polygon fill="#000000" stroke="#000000" points="4848.5544,-151.8549 4852.0544,-161.855 4855.5544,-151.855 4848.5544,-151.8549"/>
</g>
<!-- PageNotFoundRoutingModule -->
<g id="node18" class="node">
<title>PageNotFoundRoutingModule</title>
<polygon fill="#8dd3c7" stroke="#000000" points="4801.1595,-122 4798.1595,-126 4777.1595,-126 4774.1595,-122 4612.8405,-122 4612.8405,-86 4801.1595,-86 4801.1595,-122"/>
<text text-anchor="middle" x="4707" y="-99.8" font-family="Times,serif" font-size="14.00" fill="#000000">PageNotFoundRoutingModule</text>
</g>
<!-- PageNotFoundRoutingModule&#45;&gt;PageNotFoundModule -->
<g id="edge15" class="edge">
<title>PageNotFoundRoutingModule&#45;&gt;PageNotFoundModule</title>
<path fill="none" stroke="#000000" d="M4768.2795,-122.0109C4768.2795,-122.0109 4768.2795,-151.855 4768.2795,-151.855"/>
<polygon fill="#000000" stroke="#000000" points="4764.7795,-151.8549 4768.2795,-161.855 4771.7795,-151.855 4764.7795,-151.8549"/>
</g>
<!-- ListPrestationsComponent -->
<g id="node19" class="node">
<title>ListPrestationsComponent</title>
<polygon fill="#ffffb3" stroke="#000000" points="4573.0448,-122 4408.9552,-122 4408.9552,-86 4573.0448,-86 4573.0448,-122"/>
<text text-anchor="middle" x="4491" y="-99.8" font-family="Times,serif" font-size="14.00" fill="#000000">ListPrestationsComponent</text>
</g>
<!-- ListPrestationsComponent&#45;&gt;PrestationsModule -->
<g id="edge16" class="edge">
<title>ListPrestationsComponent&#45;&gt;PrestationsModule</title>
<path fill="none" stroke="#000000" d="M4491,-122.0263C4491,-146.9773 4491,-189 4491,-189 4491,-189 3997.6256,-189 3997.6256,-189"/>
<polygon fill="#000000" stroke="#000000" points="3997.6256,-185.5001 3987.6256,-189 3997.6255,-192.5001 3997.6256,-185.5001"/>
</g>
<!-- PageAddPrestationComponent -->
<g id="node20" class="node">
<title>PageAddPrestationComponent</title>
<polygon fill="#ffffb3" stroke="#000000" points="4390.1399,-122 4201.8601,-122 4201.8601,-86 4390.1399,-86 4390.1399,-122"/>
<text text-anchor="middle" x="4296" y="-99.8" font-family="Times,serif" font-size="14.00" fill="#000000">PageAddPrestationComponent</text>
</g>
<!-- PageAddPrestationComponent&#45;&gt;PrestationsModule -->
<g id="edge17" class="edge">
<title>PageAddPrestationComponent&#45;&gt;PrestationsModule</title>
<path fill="none" stroke="#000000" d="M4296,-122.0109C4296,-144.4852 4296,-180 4296,-180 4296,-180 3997.5196,-180 3997.5196,-180"/>
<polygon fill="#000000" stroke="#000000" points="3997.5197,-176.5001 3987.5196,-180 3997.5196,-183.5001 3997.5197,-176.5001"/>
</g>
<!-- PagePrestationsComponent -->
<g id="node21" class="node">
<title>PagePrestationsComponent</title>
<polygon fill="#ffffb3" stroke="#000000" points="4183.9776,-122 4014.0224,-122 4014.0224,-86 4183.9776,-86 4183.9776,-122"/>
<text text-anchor="middle" x="4099" y="-99.8" font-family="Times,serif" font-size="14.00" fill="#000000">PagePrestationsComponent</text>
</g>
<!-- PagePrestationsComponent&#45;&gt;PrestationsModule -->
<g id="edge18" class="edge">
<title>PagePrestationsComponent&#45;&gt;PrestationsModule</title>
<path fill="none" stroke="#000000" d="M4099,-122.308C4099,-142.1455 4099,-171 4099,-171 4099,-171 3997.6408,-171 3997.6408,-171"/>
<polygon fill="#000000" stroke="#000000" points="3997.6408,-167.5001 3987.6408,-171 3997.6407,-174.5001 3997.6408,-167.5001"/>
</g>
<!-- PrestationComponent -->
<g id="node22" class="node">
<title>PrestationComponent</title>
<polygon fill="#ffffb3" stroke="#000000" points="3995.8216,-122 3858.1784,-122 3858.1784,-86 3995.8216,-86 3995.8216,-122"/>
<text text-anchor="middle" x="3927" y="-99.8" font-family="Times,serif" font-size="14.00" fill="#000000">PrestationComponent</text>
</g>
<!-- PrestationComponent&#45;&gt;PrestationsModule -->
<g id="edge19" class="edge">
<title>PrestationComponent&#45;&gt;PrestationsModule</title>
<path fill="none" stroke="#000000" d="M3947.1639,-122.0109C3947.1639,-122.0109 3947.1639,-151.855 3947.1639,-151.855"/>
<polygon fill="#000000" stroke="#000000" points="3943.664,-151.8549 3947.1639,-161.855 3950.664,-151.855 3943.664,-151.8549"/>
</g>
<!-- PrestationsRoutingModule -->
<g id="node24" class="node">
<title>PrestationsRoutingModule</title>
<polygon fill="#8dd3c7" stroke="#000000" points="3834.101,-122 3831.101,-126 3810.101,-126 3807.101,-122 3667.899,-122 3667.899,-86 3834.101,-86 3834.101,-122"/>
<text text-anchor="middle" x="3751" y="-99.8" font-family="Times,serif" font-size="14.00" fill="#000000">PrestationsRoutingModule</text>
</g>
<!-- PrestationsRoutingModule&#45;&gt;PrestationsModule -->
<g id="edge20" class="edge">
<title>PrestationsRoutingModule&#45;&gt;PrestationsModule</title>
<path fill="none" stroke="#000000" d="M3751,-122.0267C3751,-142.7672 3751,-174 3751,-174 3751,-174 3856.4308,-174 3856.4308,-174"/>
<polygon fill="#000000" stroke="#000000" points="3856.4308,-177.5001 3866.4308,-174 3856.4307,-170.5001 3856.4308,-177.5001"/>
</g>
<!-- AddRowComponent -->
<g id="node25" class="node">
<title>AddRowComponent</title>
<polygon fill="#ffffb3" stroke="#000000" points="2944.8823,-198 2813.1177,-198 2813.1177,-162 2944.8823,-162 2944.8823,-198"/>
<text text-anchor="middle" x="2879" y="-175.8" font-family="Times,serif" font-size="14.00" fill="#000000">AddRowComponent</text>
</g>
<!-- AddRowComponent&#45;&gt;SharedModule -->
<g id="edge23" class="edge">
<title>AddRowComponent&#45;&gt;SharedModule</title>
<path fill="none" stroke="#000000" d="M2879,-161.8757C2879,-147.2168 2879,-129 2879,-129 2879,-129 1711.5788,-129 1711.5788,-129 1711.5788,-129 1711.5788,-128.3169 1711.5788,-128.3169"/>
<polygon fill="#000000" stroke="#000000" points="1715.079,-132.1686 1711.5788,-122.1686 1708.079,-132.1687 1715.079,-132.1686"/>
</g>
<!-- StateDirective -->
<g id="node26" class="node">
<title>StateDirective</title>
<polygon fill="#ffffb3" stroke="#000000" points="2795.0758,-198 2698.9242,-198 2698.9242,-162 2795.0758,-162 2795.0758,-198"/>
<text text-anchor="middle" x="2747" y="-175.8" font-family="Times,serif" font-size="14.00" fill="#000000">StateDirective</text>
</g>
<!-- StateDirective&#45;&gt;SharedModule -->
<g id="edge24" class="edge">
<title>StateDirective&#45;&gt;SharedModule</title>
<path fill="none" stroke="#000000" d="M2747,-161.8533C2747,-148.2605 2747,-132 2747,-132 2747,-132 1702.6313,-132 1702.6313,-132 1702.6313,-132 1702.6313,-131.0207 1702.6313,-131.0207"/>
<polygon fill="#000000" stroke="#000000" points="1706.1314,-132.2069 1702.6313,-122.207 1699.1314,-132.207 1706.1314,-132.2069"/>
</g>
<!-- TableauComponent -->
<g id="node27" class="node">
<title>TableauComponent</title>
<polygon fill="#ffffb3" stroke="#000000" points="2681.4201,-198 2554.5799,-198 2554.5799,-162 2681.4201,-162 2681.4201,-198"/>
<text text-anchor="middle" x="2618" y="-175.8" font-family="Times,serif" font-size="14.00" fill="#000000">TableauComponent</text>
</g>
<!-- TableauComponent&#45;&gt;SharedModule -->
<g id="edge25" class="edge">
<title>TableauComponent&#45;&gt;SharedModule</title>
<path fill="none" stroke="#000000" d="M2618,-161.9561C2618,-149.4367 2618,-135 2618,-135 2618,-135 1693.6838,-135 1693.6838,-135 1693.6838,-135 1693.6838,-132.0328 1693.6838,-132.0328"/>
<polygon fill="#000000" stroke="#000000" points="1697.1839,-132.0328 1693.6838,-122.0328 1690.1839,-132.0329 1697.1839,-132.0328"/>
</g>
<!-- TotalPipe -->
<g id="node28" class="node">
<title>TotalPipe</title>
<polygon fill="#ffffb3" stroke="#000000" points="2537.4376,-198 2466.5624,-198 2466.5624,-162 2537.4376,-162 2537.4376,-198"/>
<text text-anchor="middle" x="2502" y="-175.8" font-family="Times,serif" font-size="14.00" fill="#000000">TotalPipe</text>
</g>
<!-- TotalPipe&#45;&gt;SharedModule -->
<g id="edge26" class="edge">
<title>TotalPipe&#45;&gt;SharedModule</title>
<path fill="none" stroke="#000000" d="M2502,-161.9445C2502,-150.561 2502,-138 2502,-138 2502,-138 1684.7364,-138 1684.7364,-138 1684.7364,-138 1684.7364,-132.1944 1684.7364,-132.1944"/>
<polygon fill="#000000" stroke="#000000" points="1688.2365,-132.1944 1684.7364,-122.1944 1681.2365,-132.1945 1688.2365,-132.1944"/>
</g>
<!-- TemplateAComponent -->
<g id="node33" class="node">
<title>TemplateAComponent</title>
<polygon fill="#ffffb3" stroke="#000000" points="3628.3075,-198 3483.6925,-198 3483.6925,-162 3628.3075,-162 3628.3075,-198"/>
<text text-anchor="middle" x="3556" y="-175.8" font-family="Times,serif" font-size="14.00" fill="#000000">TemplateAComponent</text>
</g>
<!-- TemplateAComponent&#45;&gt;TemplatesModule -->
<g id="edge31" class="edge">
<title>TemplateAComponent&#45;&gt;TemplatesModule</title>
<path fill="none" stroke="#000000" d="M3556,-161.8015C3556,-137.6437 3556,-98 3556,-98 3556,-98 1920.1851,-98 1920.1851,-98"/>
<polygon fill="#000000" stroke="#000000" points="1920.1851,-94.5001 1910.1851,-98 1920.1851,-101.5001 1920.1851,-94.5001"/>
</g>
<!-- TemplateBComponent -->
<g id="node34" class="node">
<title>TemplateBComponent</title>
<polygon fill="#ffffb3" stroke="#000000" points="3465.5379,-198 3322.4621,-198 3322.4621,-162 3465.5379,-162 3465.5379,-198"/>
<text text-anchor="middle" x="3394" y="-175.8" font-family="Times,serif" font-size="14.00" fill="#000000">TemplateBComponent</text>
</g>
<!-- TemplateBComponent&#45;&gt;TemplatesModule -->
<g id="edge32" class="edge">
<title>TemplateBComponent&#45;&gt;TemplatesModule</title>
<path fill="none" stroke="#000000" d="M3394,-161.9891C3394,-139.5148 3394,-104 3394,-104 3394,-104 1920.0718,-104 1920.0718,-104"/>
<polygon fill="#000000" stroke="#000000" points="1920.0718,-100.5001 1910.0718,-104 1920.0717,-107.5001 1920.0718,-100.5001"/>
</g>
<!-- FooterComponent -->
<g id="node37" class="node">
<title>FooterComponent</title>
<polygon fill="#ffffb3" stroke="#000000" points="639.8809,-122 522.1191,-122 522.1191,-86 639.8809,-86 639.8809,-122"/>
<text text-anchor="middle" x="581" y="-99.8" font-family="Times,serif" font-size="14.00" fill="#000000">FooterComponent</text>
</g>
<!-- FooterComponent&#45;&gt;UiModule -->
<g id="edge35" class="edge">
<title>FooterComponent&#45;&gt;UiModule</title>
<path fill="none" stroke="#000000" d="M536.3885,-122.1804C536.3885,-135.0382 536.3885,-150 536.3885,-150 536.3885,-150 403.2251,-150 403.2251,-150 403.2251,-150 403.2251,-151.8568 403.2251,-151.8568"/>
<polygon fill="#000000" stroke="#000000" points="399.7252,-151.8568 403.2251,-161.8568 406.7252,-151.8568 399.7252,-151.8568"/>
</g>
<!-- HeaderComponent -->
<g id="node38" class="node">
<title>HeaderComponent</title>
<polygon fill="#ffffb3" stroke="#000000" points="503.7437,-122 382.2563,-122 382.2563,-86 503.7437,-86 503.7437,-122"/>
<text text-anchor="middle" x="443" y="-99.8" font-family="Times,serif" font-size="14.00" fill="#000000">HeaderComponent</text>
</g>
<!-- HeaderComponent&#45;&gt;UiModule -->
<g id="edge36" class="edge">
<title>HeaderComponent&#45;&gt;UiModule</title>
<path fill="none" stroke="#000000" d="M392.6767,-122.0109C392.6767,-122.0109 392.6767,-151.855 392.6767,-151.855"/>
<polygon fill="#000000" stroke="#000000" points="389.1768,-151.8549 392.6767,-161.855 396.1768,-151.855 389.1768,-151.8549"/>
</g>
<!-- NavComponent -->
<g id="node39" class="node">
<title>NavComponent</title>
<polygon fill="#ffffb3" stroke="#000000" points="364.1542,-122 259.8458,-122 259.8458,-86 364.1542,-86 364.1542,-122"/>
<text text-anchor="middle" x="312" y="-99.8" font-family="Times,serif" font-size="14.00" fill="#000000">NavComponent</text>
</g>
<!-- NavComponent&#45;&gt;UiModule -->
<g id="edge37" class="edge">
<title>NavComponent&#45;&gt;UiModule</title>
<path fill="none" stroke="#000000" d="M358.3017,-122.0109C358.3017,-122.0109 358.3017,-151.855 358.3017,-151.855"/>
<polygon fill="#000000" stroke="#000000" points="354.8018,-151.8549 358.3017,-161.855 361.8018,-151.855 354.8018,-151.8549"/>
</g>
<!-- UiComponent -->
<g id="node40" class="node">
<title>UiComponent</title>
<polygon fill="#ffffb3" stroke="#000000" points="241.8302,-122 146.1698,-122 146.1698,-86 241.8302,-86 241.8302,-122"/>
<text text-anchor="middle" x="194" y="-99.8" font-family="Times,serif" font-size="14.00" fill="#000000">UiComponent</text>
</g>
<!-- UiComponent&#45;&gt;UiModule -->
<g id="edge38" class="edge">
<title>UiComponent&#45;&gt;UiModule</title>
<path fill="none" stroke="#000000" d="M217.6389,-122.1871C217.6389,-137.1824 217.6389,-156 217.6389,-156 217.6389,-156 352.2767,-156 352.2767,-156 352.2767,-156 352.2767,-156.581 352.2767,-156.581"/>
<polygon fill="#000000" stroke="#000000" points="348.7768,-151.8097 352.2767,-161.8097 355.7768,-151.8098 348.7768,-151.8097"/>
</g>
</g>
</svg>
