<?xml version="1.0" encoding="UTF-8" standalone="no"?>
<!DOCTYPE svg PUBLIC "-//W3C//DTD SVG 1.1//EN"
 "http://www.w3.org/Graphics/SVG/1.1/DTD/svg11.dtd">
<!-- Generated by graphviz version 2.40.1 (20161225.0304)
 -->
<!-- Title: dependencies Pages: 1 -->
<svg width="1213pt" height="211pt"
 viewBox="0.00 0.00 1213.00 211.00" xmlns="http://www.w3.org/2000/svg" xmlns:xlink="http://www.w3.org/1999/xlink">
<g id="graph0" class="graph" transform="scale(1 1) rotate(0) translate(4 207)">
<title>dependencies</title>
<polygon fill="#ffffff" stroke="transparent" points="-4,4 -4,-207 1209,-207 1209,4 -4,4"/>
<text text-anchor="start" x="581.5091" y="-42.4" font-family="sans-serif" font-weight="bold" font-size="14.00" fill="#000000">Legend</text>
<polygon fill="#ffffb3" stroke="transparent" points="368.5,-10 368.5,-30 388.5,-30 388.5,-10 368.5,-10"/>
<text text-anchor="start" x="392.129" y="-15.4" font-family="sans-serif" font-size="14.00" fill="#000000"> &#160;Declarations</text>
<polygon fill="#8dd3c7" stroke="transparent" points="481.5,-10 481.5,-30 501.5,-30 501.5,-10 481.5,-10"/>
<text text-anchor="start" x="505.2251" y="-15.4" font-family="sans-serif" font-size="14.00" fill="#000000"> &#160;Module</text>
<polygon fill="#80b1d3" stroke="transparent" points="567.5,-10 567.5,-30 587.5,-30 587.5,-10 567.5,-10"/>
<text text-anchor="start" x="591.2812" y="-15.4" font-family="sans-serif" font-size="14.00" fill="#000000"> &#160;Bootstrap</text>
<polygon fill="#fdb462" stroke="transparent" points="664.5,-10 664.5,-30 684.5,-30 684.5,-10 664.5,-10"/>
<text text-anchor="start" x="688.1732" y="-15.4" font-family="sans-serif" font-size="14.00" fill="#000000"> &#160;Providers</text>
<polygon fill="#fb8072" stroke="transparent" points="760.5,-10 760.5,-30 780.5,-30 780.5,-10 760.5,-10"/>
<text text-anchor="start" x="784.2258" y="-15.4" font-family="sans-serif" font-size="14.00" fill="#000000"> &#160;Exports</text>
<g id="clust1" class="cluster">
<title>cluster_PrestationsModule</title>
<polygon fill="none" stroke="#000000" stroke-dasharray="1,5" points="8,-70 8,-195 1197,-195 1197,-70 8,-70"/>
</g>
<g id="clust2" class="cluster">
<title>cluster_PrestationsModule_declarations</title>
<polygon fill="none" stroke="#000000" points="458,-78 458,-130 1189,-130 1189,-78 458,-78"/>
</g>
<g id="clust7" class="cluster">
<title>cluster_PrestationsModule_imports</title>
<polygon fill="none" stroke="#000000" points="16,-78 16,-130 450,-130 450,-78 16,-78"/>
</g>
<!-- ListPrestationsComponent -->
<g id="node1" class="node">
<title>ListPrestationsComponent</title>
<polygon fill="#ffffb3" stroke="#000000" points="1181.0448,-122 1016.9552,-122 1016.9552,-86 1181.0448,-86 1181.0448,-122"/>
<text text-anchor="middle" x="1099" y="-99.8" font-family="Times,serif" font-size="14.00" fill="#000000">ListPrestationsComponent</text>
</g>
<!-- PrestationsModule -->
<g id="node5" class="node">
<title>PrestationsModule</title>
<polygon fill="#8dd3c7" stroke="#000000" points="595.4832,-187 592.4832,-191 571.4832,-191 568.4832,-187 474.5168,-187 474.5168,-151 595.4832,-151 595.4832,-187"/>
<text text-anchor="middle" x="535" y="-164.8" font-family="Times,serif" font-size="14.00" fill="#000000">PrestationsModule</text>
</g>
<!-- ListPrestationsComponent&#45;&gt;PrestationsModule -->
<g id="edge1" class="edge">
<title>ListPrestationsComponent&#45;&gt;PrestationsModule</title>
<path fill="none" stroke="#000000" d="M1099,-122.2921C1099,-144.2057 1099,-178 1099,-178 1099,-178 605.6256,-178 605.6256,-178"/>
<polygon fill="#000000" stroke="#000000" points="605.6256,-174.5001 595.6256,-178 605.6255,-181.5001 605.6256,-174.5001"/>
</g>
<!-- PageAddPrestationComponent -->
<g id="node2" class="node">
<title>PageAddPrestationComponent</title>
<polygon fill="#ffffb3" stroke="#000000" points="998.1399,-122 809.8601,-122 809.8601,-86 998.1399,-86 998.1399,-122"/>
<text text-anchor="middle" x="904" y="-99.8" font-family="Times,serif" font-size="14.00" fill="#000000">PageAddPrestationComponent</text>
</g>
<!-- PageAddPrestationComponent&#45;&gt;PrestationsModule -->
<g id="edge2" class="edge">
<title>PageAddPrestationComponent&#45;&gt;PrestationsModule</title>
<path fill="none" stroke="#000000" d="M904,-122.1061C904,-141.3391 904,-169 904,-169 904,-169 605.5196,-169 605.5196,-169"/>
<polygon fill="#000000" stroke="#000000" points="605.5197,-165.5001 595.5196,-169 605.5196,-172.5001 605.5197,-165.5001"/>
</g>
<!-- PagePrestationsComponent -->
<g id="node3" class="node">
<title>PagePrestationsComponent</title>
<polygon fill="#ffffb3" stroke="#000000" points="791.9776,-122 622.0224,-122 622.0224,-86 791.9776,-86 791.9776,-122"/>
<text text-anchor="middle" x="707" y="-99.8" font-family="Times,serif" font-size="14.00" fill="#000000">PagePrestationsComponent</text>
</g>
<!-- PagePrestationsComponent&#45;&gt;PrestationsModule -->
<g id="edge3" class="edge">
<title>PagePrestationsComponent&#45;&gt;PrestationsModule</title>
<path fill="none" stroke="#000000" d="M707,-122.027C707,-138.3976 707,-160 707,-160 707,-160 605.6408,-160 605.6408,-160"/>
<polygon fill="#000000" stroke="#000000" points="605.6408,-156.5001 595.6408,-160 605.6407,-163.5001 605.6408,-156.5001"/>
</g>
<!-- PrestationComponent -->
<g id="node4" class="node">
<title>PrestationComponent</title>
<polygon fill="#ffffb3" stroke="#000000" points="603.8216,-122 466.1784,-122 466.1784,-86 603.8216,-86 603.8216,-122"/>
<text text-anchor="middle" x="535" y="-99.8" font-family="Times,serif" font-size="14.00" fill="#000000">PrestationComponent</text>
</g>
<!-- PrestationComponent&#45;&gt;PrestationsModule -->
<g id="edge4" class="edge">
<title>PrestationComponent&#45;&gt;PrestationsModule</title>
<path fill="none" stroke="#000000" d="M535,-122.1061C535,-122.1061 535,-140.991 535,-140.991"/>
<polygon fill="#000000" stroke="#000000" points="531.5001,-140.9909 535,-150.991 538.5001,-140.991 531.5001,-140.9909"/>
</g>
<!-- PrestationsRoutingModule -->
<g id="node6" class="node">
<title>PrestationsRoutingModule</title>
<polygon fill="#8dd3c7" stroke="#000000" points="442.101,-122 439.101,-126 418.101,-126 415.101,-122 275.899,-122 275.899,-86 442.101,-86 442.101,-122"/>
<text text-anchor="middle" x="359" y="-99.8" font-family="Times,serif" font-size="14.00" fill="#000000">PrestationsRoutingModule</text>
</g>
<!-- PrestationsRoutingModule&#45;&gt;PrestationsModule -->
<g id="edge5" class="edge">
<title>PrestationsRoutingModule&#45;&gt;PrestationsModule</title>
<path fill="none" stroke="#000000" d="M359,-122.027C359,-138.3976 359,-160 359,-160 359,-160 464.4308,-160 464.4308,-160"/>
<polygon fill="#000000" stroke="#000000" points="464.4308,-163.5001 474.4308,-160 464.4307,-156.5001 464.4308,-163.5001"/>
</g>
<!-- SharedModule -->
<g id="node7" class="node">
<title>SharedModule</title>
<polygon fill="#8dd3c7" stroke="#000000" points="258.4231,-122 255.4231,-126 234.4231,-126 231.4231,-122 159.5769,-122 159.5769,-86 258.4231,-86 258.4231,-122"/>
<text text-anchor="middle" x="209" y="-99.8" font-family="Times,serif" font-size="14.00" fill="#000000">SharedModule</text>
</g>
<!-- SharedModule&#45;&gt;PrestationsModule -->
<g id="edge6" class="edge">
<title>SharedModule&#45;&gt;PrestationsModule</title>
<path fill="none" stroke="#000000" d="M209,-122.1061C209,-141.3391 209,-169 209,-169 209,-169 464.4459,-169 464.4459,-169"/>
<polygon fill="#000000" stroke="#000000" points="464.4459,-172.5001 474.4459,-169 464.4459,-165.5001 464.4459,-172.5001"/>
</g>
<!-- TemplatesModule -->
<g id="node8" class="node">
<title>TemplatesModule</title>
<polygon fill="#8dd3c7" stroke="#000000" points="141.8627,-122 138.8627,-126 117.8627,-126 114.8627,-122 24.1373,-122 24.1373,-86 141.8627,-86 141.8627,-122"/>
<text text-anchor="middle" x="83" y="-99.8" font-family="Times,serif" font-size="14.00" fill="#000000">TemplatesModule</text>
</g>
<!-- TemplatesModule&#45;&gt;PrestationsModule -->
<g id="edge7" class="edge">
<title>TemplatesModule&#45;&gt;PrestationsModule</title>
<path fill="none" stroke="#000000" d="M83,-122.2921C83,-144.2057 83,-178 83,-178 83,-178 464.5103,-178 464.5103,-178"/>
<polygon fill="#000000" stroke="#000000" points="464.5103,-181.5001 474.5103,-178 464.5102,-174.5001 464.5103,-181.5001"/>
</g>
</g>
</svg>
